<?xml version="1.0" encoding="UTF-8" standalone="no"?>
<!-- Uploaded to: SVG Repo, www.svgrepo.com, Generator: SVG Repo Mixer Tools -->

<svg
   fill="#000000"
   height="800px"
   width="800px"
   version="1.1"
   id="Layer_1"
   viewBox="0 0 512 512"
   xml:space="preserve"
   sodipodi:docname="behance.svg"
   inkscape:version="1.1.1 (3bf5ae0d25, 2021-09-20)"
   xmlns:inkscape="http://www.inkscape.org/namespaces/inkscape"
   xmlns:sodipodi="http://sodipodi.sourceforge.net/DTD/sodipodi-0.dtd"
   xmlns="http://www.w3.org/2000/svg"
   xmlns:svg="http://www.w3.org/2000/svg"><defs
   id="defs15" /><sodipodi:namedview
   id="namedview13"
   pagecolor="#ffffff"
   bordercolor="#666666"
   borderopacity="1.0"
   inkscape:pageshadow="2"
   inkscape:pageopacity="0.0"
   inkscape:pagecheckerboard="0"
   showgrid="false"
   inkscape:zoom="0.89875"
   inkscape:cx="399.44367"
   inkscape:cy="399.44367"
   inkscape:window-width="3840"
   inkscape:window-height="2066"
   inkscape:window-x="2869"
   inkscape:window-y="-11"
   inkscape:window-maximized="1"
   inkscape:current-layer="Layer_1" />
<g
   id="g10"
   style="fill:#e8ebf7;fill-opacity:1">
	<path
   d="M214.3,266.1c-3.8-1.7-9-2.6-15.8-2.7h-39v42.2H198c6.9,0,12.2-0.9,16-2.8c7-3.5,10.4-10,10.4-19.7   C224.4,274.9,221,269.2,214.3,266.1z"
   id="path2"
   style="fill:#e8ebf7;fill-opacity:1" />
	<path
   d="M344.1,244.5c-4.9-4.2-11-6.3-18.2-6.3c-7.8,0-13.9,2.2-18.3,6.7c-4.3,4.5-7,10.5-8.2,18.1h52.7   C351.7,254.9,348.9,248.8,344.1,244.5z"
   id="path4"
   style="fill:#e8ebf7;fill-opacity:1" />
	<path
   d="M214.8,233.3c4.3-2.6,6.4-7.3,6.4-13.9c0-7.4-2.8-12.2-8.5-14.6c-4.9-1.6-11.1-2.5-18.7-2.5h-34.4v34.9H198   C204.9,237.3,210.4,236,214.8,233.3z"
   id="path6"
   style="fill:#e8ebf7;fill-opacity:1" />
	<path
   d="M0,0v512h512V0L0,0L0,0z M291.6,182.3h67.8V202h-67.8L291.6,182.3L291.6,182.3z M250.7,310.6c-3,4.9-6.7,9.1-11.2,12.4   c-5,3.9-11,6.5-17.9,8c-6.9,1.4-14.3,2.1-22.4,2.1H128V174.9h76.5c19.3,0.3,33,5.9,41,16.9c4.8,6.7,7.2,14.8,7.2,24.2   c0,9.6-2.4,17.4-7.3,23.3c-2.7,3.3-6.8,6.3-12.1,9c8.1,3,14.2,7.6,18.3,14s6.2,14.1,6.2,23.2C257.8,294.7,255.4,303.1,250.7,310.6z    M384,283.2h-85.2c0.5,11.7,4.5,20,12.2,24.7c4.7,2.9,10.3,4.4,16.9,4.4c6.9,0,12.6-1.8,17-5.4c2.4-1.9,4.5-4.6,6.3-8.1h31.2   c-0.8,6.9-4.6,14-11.3,21.2c-10.5,11.4-25.1,17.1-44,17.1c-15.6,0-29.3-4.8-41.2-14.4c-11.9-9.6-17.9-25.2-17.9-46.8   c0-20.3,5.4-35.8,16.1-46.6c10.8-10.8,24.7-16.2,41.8-16.2c10.2,0,19.4,1.8,27.5,5.5c8.2,3.6,14.9,9.4,20.2,17.3   c4.8,6.9,7.9,15,9.3,24.2C383.8,265.4,384.1,273.1,384,283.2z"
   id="path8"
   style="fill:#e8ebf7;fill-opacity:1" />
</g>
</svg>
